<?xml version="1.0" encoding="utf-8"?>
<!-- Generator: Adobe Illustrator 25.0.0, SVG Export Plug-In . SVG Version: 6.00 Build 0)  -->
<svg version="1.1" xmlns="http://www.w3.org/2000/svg" xmlns:xlink="http://www.w3.org/1999/xlink" x="0px" y="0px"
	 viewBox="0 0 2835 648.9" style="enable-background:new 0 0 2835 648.9;" xml:space="preserve">
<style type="text/css">
	.st0{fill:#F4973A;}
	.st1{fill:#DB810C;}
	.st2{fill:#8D5927;}
	.st3{fill:#32B7BE;}
	.st4{fill:#FFFFFF;}
	.st5{fill:#8C5926;}
	.st6{fill:#2BB6BD;}
</style>
<g id="Layer_1">
	<g>
		<path class="st0" d="M1342.9,389.7c-2.4,7.3-4.9,14.3-7.5,21v0c-49.8,127.1-144.2,152-196.5,152c-55.1,0-160.2-24.7-201.9-166.6
			c-2.8-9.7-5.1-19.6-6.9-29.7c-12-68-1.2-143.6,12.9-202.9c14.4-61,32.3-104.6,32.3-104.6c54.5,38.6,58.7,70.4,58.7,70.4
			c100.9-64,203.8,3.5,203.8,3.5c22.4-45,66.9-60.7,66.9-60.7s21.3,59.3,29.6,86.1C1342.5,185,1342.9,389.7,1342.9,389.7z"/>
		<path class="st1" d="M930.2,366.4c-12-68-1.2-143.6,12.9-202.9C943,163.5,1008.5,305.6,930.2,366.4z"/>
		<path class="st2" d="M555.2,74.9c0,0,12.7,209.6,60,330.4s88.9,222.4,165.2,215.3s129.9-43.5,153.9-99.1c0,0,13.6-26.8-20.9-61.6
			c-34.6-34.8-45.4-50.4-52.9-62.1c-7.5-11.8-12.5-28,5.2-35.1c17.6-7.1,28.9-3.5,42.6-7.5c13.6-4,69.2-24.7,48.9-140.5
			c0,0-6.2-33.5-20.2-67.4c0,0-3.5-7.1-1.9-11.6c1.6-4.6,4.6-9.2,2.5-23.5c-2.1-14.3-4.2-31-20-46.5s-36.2-2.2-50.4,8
			c-14.1,10.2-40.3,24.6-72.6,33.2s-41.6,8.5-53.8,7.9c-12.2-0.5-18.4-4.1-31.8-22.8c-13.4-18.7-36.4-58.1-42.4-73.8
			c-6.4-2-26.5,63.9-25.1,104.6c0,0,0.7,17.8,1.1,28.6c0,0-10.1-20.5-27-36.2S586.1,87.1,555.2,74.9z"/>
		<path class="st1" d="M1342.9,389.7c-2.4,7.3-4.9,14.3-7.5,21c-52.7-176.6-1.2-252.5-1.2-252.5
			C1342.5,185,1342.9,389.7,1342.9,389.7z"/>
		<path class="st3" d="M1309.1,584.5c0,0,64.2-63.8,29.9-213.4s-9.2-211.6,6.6-234.9c15.8-23.3,51.4-71,127.8-68.7
			c76.4,2.3,99,63.9,104.2,69.3c5.2,5.4,16.5,19.3,54.8,10.1c38.4-9.2,56.2-18.1,65.4-9.2c6.4,7.3-22.8,28.5-44.5,49.4
			c-21.6,20.9-40,40.9-40.2,55.8c-0.2,14.8-0.7,119.3-29.4,187.5c-28.7,68.2-98.8,228.9-331.8,198.6c0,0,100.9-16.2,152.5-91.8
			C1404.4,537.2,1359.9,574.6,1309.1,584.5z"/>
	</g>
</g>
<g id="Layer_2">
	<g>
		<path class="st4" d="M792.6,381.4c8.4,19.3,10.7,34.7,7.1,46c-3.6,11.3-12.8,20.2-27.6,26.6c-14.8,6.4-27.3,7.3-37.5,2.8
			c-10.2-4.5-19.4-16.3-27.6-35.4l-65.3-151.1c-6.3-14.6-7-27.1-2.2-37.5c4.8-10.4,13.7-18.5,26.6-24l63.7-27.5
			c15.5-6.7,30.7-10.8,45.7-12.3c14.9-1.5,28.9-0.6,41.8,2.8s24.5,9.5,34.8,18.5c10.3,9,18.4,20.5,24.4,34.3
			c7.3,16.9,8.8,33.8,4.4,50.6c-4.4,16.8-13.2,31.7-26.5,44.8c-13.3,13.1-30,24-50,32.7l-20.4,8.8L792.6,381.4z M791.6,255.2
			c-3.8-8.8-7.7-15.4-11.6-19.9c-3.9-4.4-8.5-7-13.8-7.8c-5.3-0.8-10.6-0.6-15.8,0.7c-5.3,1.3-12.2,3.8-20.8,7.5l34,78.8
			c6.7-2.9,12.3-6,16.9-9.4c4.6-3.4,8.5-7.5,11.5-12.2c3.1-4.7,4.6-10.3,4.5-16.6C796.6,269.8,794.9,262.9,791.6,255.2z"/>
	</g>
	<g>
		<path class="st4" d="M1182.8,285.6c13.8,0,23.5,2.2,29.1,6.6c5.6,4.4,8.4,12,8.4,22.6c0,8.8-3.3,15.1-9.9,18.9
			c-6.6,3.8-17,5.7-31,5.7h-63.2v41.3l84.6,0.4c14.6,0,25,2.1,31.4,6.4c6.4,4.3,9.6,11.9,9.6,22.8c0,12.5-3.7,21.2-11.1,26.1
			c-7.4,4.9-18.7,7.4-33.7,7.4h-126.4c-15.3,0-26.6-4.1-33.7-12.3c-7.2-8.2-10.7-22.7-10.7-43.5V223.6c0-31.2,14.8-46.8,44.5-46.8
			h126.4c15.1,0,26.3,2.3,33.7,7c7.4,4.7,11.1,13.1,11.1,25.4c0,11.4-3.2,19.4-9.6,24c-6.4,4.6-16.8,6.8-31.4,6.8h-85v45.6H1182.8z"
			/>
	</g>
	<g>
		<path class="st4" d="M1487.6,399.4c-2.3,14.3-5.8,25.3-10.7,33.1c-4.8,7.8-10.6,12.9-17.2,15.1c-6.7,2.3-15,2.6-25,1
			c-14.8-2.4-24.8-8-30.2-16.9c-5.4-8.9-6.6-23.4-3.6-43.5l21.4-138.6l-31.9-5.1c-15.8-2.5-27.2-6.9-34.3-13.2
			c-7.1-6.3-9.6-15.8-7.6-28.5c1.2-7.8,3.8-13.6,7.6-17.6c3.8-4,9-6.4,15.6-7.3c6.5-0.9,15.1-0.5,25.6,1.2l160.6,25.7
			c14,2.2,23.7,6.4,29.2,12.4c5.4,6,7.2,15.1,5.2,27.4c-1.3,8.3-4.2,14.4-8.5,18.5c-4.4,4.1-9.7,6.5-16,7.3
			c-6.3,0.8-14.2,0.4-23.7-1.1l-34.9-5.6L1487.6,399.4z"/>
	</g>
	<g>
		<path class="st5" d="M217.9,306.7c23.6,13.9,35.3,32.6,35.3,55.9c0,10.1-2,19.8-5.9,29.1c-3.9,9.2-9.8,17.7-17.5,25.3
			c-7.7,7.6-17.9,13.6-30.6,18.1c-12.7,4.4-27,6.6-42.9,6.6H68.2c-15.5,0-26.5-3.9-33.2-11.8c-6.7-7.8-10.1-21.9-10.1-42.2V226.9
			c0-8.6,1.5-16.2,4.6-22.8c3-6.6,7.9-11.9,14.6-16c6.7-4,14.8-6.1,24.1-6.1h87c25.3,0.3,46.4,7.2,63.3,20.7
			c16.8,13.6,25.3,31,25.3,52.2c0,6.8-0.6,12.9-1.7,18c-1.1,5.2-2.9,9.8-5.1,13.9c-2.3,4.1-4.9,7.6-8,10.6S222.2,303.6,217.9,306.7z
			 M166.2,255c0-10.6-4.1-17.9-12.3-21.9c-8.2-3.9-22-5.9-41.2-5.9v58.1c11.9,0,21.6-0.9,29.1-2.7c7.5-1.8,13.4-4.9,17.9-9.3
			C164,269,166.2,262.8,166.2,255z M171.2,356.4c0-8.4-2.2-14.8-6.5-19.4c-4.3-4.6-10.5-7.8-18.6-9.7c-8.1-1.9-19.3-2.9-33.4-2.9
			v65.7c19.8,0,34.4-2.5,44.1-7.4C166.4,377.9,171.2,369.1,171.2,356.4z"/>
		<path class="st5" d="M400.7,182c39.5,0,71.2,11.4,95.2,34.2c23.9,22.8,35.9,54.2,35.9,94.2c0,12.9-1.2,25.5-3.6,37.6
			c-2.4,12.2-6.4,24-12,35.5c-5.6,11.5-12.5,21.5-20.9,30c-8.4,8.5-19,15.3-31.9,20.5c-12.9,5.2-27.5,7.8-43.7,7.8h-74.9
			c-15.5,0-26.5-3.9-33.2-11.8c-6.7-7.8-10.1-22-10.1-42.6V227.2c0-30.1,14.4-45.2,43.3-45.2H400.7z M389.3,390.3
			c6.6,0,12.4-0.7,17.3-2.1c4.9-1.4,9.6-3.9,14.1-7.6c4.4-3.7,8-8.5,10.8-14.6c2.8-6.1,5-13.9,6.7-23.4c1.6-9.5,2.5-20.7,2.5-33.6
			c0-14.4-1.3-26.7-3.8-36.7c-2.5-10-6.2-17.6-11-22.8c-4.8-5.2-10.1-8.9-15.8-11c-5.7-2.1-12.6-3.4-20.7-3.6V390.3z"/>
	</g>
</g>
<g id="Layer_3">
	<g>
		<path class="st6" d="M1901.2,316.4l-47.5,97.3c-4.1,8.1-8.4,13.9-12.9,17.3c-4.6,3.4-10,5.1-16.3,5.1c-8.1,0-15-2.9-20.5-8.5
			c-5.6-5.7-12.8-16-21.7-31l-44.1-80.2v107.5c0,10.9-2.5,18.9-7.4,23.9c-4.9,5.1-12.4,7.6-22.2,7.6c-11.2,0-19.3-2.5-24.3-7.4
			c-5.1-4.9-7.6-14.6-7.6-29.1V253.3c0-19.5,4.4-34.2,13.3-44.1c8.9-9.9,23.8-14.8,44.8-14.8c7.8,0,14.7,1.3,20.5,4
			c5.8,2.7,10.2,5.7,13.1,9.1c2.9,3.4,5.8,7.7,8.6,12.7l50.9,111.3l54-109.4c9.4-18.2,26.2-27.4,50.5-27.4c11.4,0,21.1,2,29.3,5.9
			c8.1,3.9,14.5,10.3,19.2,19c4.7,8.7,7,19.7,7,32.9v165.3c-0.3,25.1-16.1,37.6-47.5,37.6c-11.4,0-20.7-3.1-27.9-9.3
			c-7.2-6.2-11-16.3-11.2-30.2V316.4z"/>
		<path class="st6" d="M2179.4,397.7h-63.1v20.1c0,12.9-3.4,22.4-10.3,28.5c-6.8,6.1-18.6,9.1-35.3,9.1c-7.1,0-12.9-1-17.5-3
			c-4.6-2-8.5-5.4-12-10.3c-3.4-4.8-6-11.8-7.6-21.1c-1.7-9.2-2.9-20.4-3.8-33.4c-0.9-13-1.3-29.6-1.3-49.6
			c0-17.5,1.8-33.5,5.5-48.1c3.7-14.6,8.6-26.9,14.8-37c6.2-10.1,13.2-19.1,21.1-26.8c7.8-7.7,16.4-13.7,25.7-18
			c9.2-4.3,18.2-7.5,27-9.7c8.7-2.1,17.5-3.2,26.4-3.2c10.6,0,21.1,1.5,31.5,4.4c10.4,2.9,20.9,7.9,31.5,15
			c10.6,7.1,20,15.9,27.9,26.4c8,10.5,14.5,24.1,19.6,40.8c5.1,16.7,7.6,35.5,7.6,56.2c0,33.4-1.2,58.2-3.6,74.3
			c-2.4,16.1-6.5,27.3-12.2,33.6c-5.7,6.3-14.5,9.5-26.4,9.5c-16.7,0-28.5-3-35.3-9.1s-10.3-15.6-10.3-28.5V397.7z M2148.2,257.1
			c-10.9,0-18.9,3.2-24.1,9.5c-5.2,6.3-7.8,17.6-7.8,33.8v44.8h63.1v-45.6c0-10.6-1.3-19.2-3.8-25.7c-2.5-6.5-6-10.9-10.5-13.3
			C2160.7,258.3,2155.1,257.1,2148.2,257.1z"/>
		<path class="st6" d="M2393.3,398.4c0,38-14.8,57-44.5,57c-15,0-25.9-4-32.9-12c-7-8-10.5-22.1-10.5-42.4V240.7
			c0-14.7,4-25.9,12-33.6c8-7.7,18.4-11.6,31.4-11.6h79.8c31.2,0,56.4,7.3,75.6,21.9c19.2,14.6,28.9,33.2,28.9,56
			c0,17.2-3.6,30.7-10.8,40.5c-7.2,9.8-18.8,16.9-34.8,21.5c12.2,0.8,23.4,6.6,33.8,17.7c10.4,11,15.6,24.8,15.6,41.2
			c0,16.7-1.6,29.6-4.8,38.6c-3.2,9-7.7,15-13.5,18.1c-5.8,3-14.1,4.6-24.7,4.6c-15,0-25.9-3.1-32.9-9.3c-7-6.2-10.5-15.6-10.5-28.3
			c0-15.7-1.5-27.8-4.6-36.3c-3-8.5-7-14-11.8-16.5c-4.8-2.5-11.5-3.8-20.1-3.8l-20.9,0.4V398.4z M2451.5,270.8
			c0-12.2-4.4-20.5-13.3-25.1c-8.9-4.6-23.8-6.8-44.8-6.8v65.7c19.8,0,34.4-2.5,43.9-7.4C2446.7,292.2,2451.5,283.4,2451.5,270.8z"
			/>
		<path class="st6" d="M2726.9,398.4c0,14.4-1.8,25.9-5.3,34.4c-3.5,8.5-8.4,14.4-14.6,17.7c-6.2,3.3-14.4,4.9-24.5,4.9
			c-15,0-25.8-4-32.5-12c-6.7-8-10.2-22.1-10.5-42.4l-0.8-140.2h-32.3c-16,0-27.9-2.5-35.9-7.6c-8-5.1-12-14.1-12-27
			c0-7.8,1.6-14.1,4.8-18.6c3.2-4.6,7.9-7.8,14.2-9.7c6.3-1.9,14.8-2.8,25.5-2.8h162.6c14.2,0,24.4,2.5,30.8,7.6
			c6.3,5.1,9.5,13.8,9.5,26.2c0,8.4-1.8,14.9-5.5,19.6c-3.7,4.7-8.5,7.9-14.6,9.7c-6.1,1.8-13.9,2.7-23.6,2.7h-35.3V398.4z"/>
	</g>
</g>
</svg>
